<?xml version="1.0" standalone="no"?>
<!DOCTYPE svg PUBLIC "-//W3C//DTD SVG 20010904//EN"
 "http://www.w3.org/TR/2001/REC-SVG-20010904/DTD/svg10.dtd">
<svg version="1.0" xmlns="http://www.w3.org/2000/svg"
 width="640.000000pt" height="640.000000pt" viewBox="0 0 640.000000 640.000000"
 preserveAspectRatio="xMidYMid meet">
<metadata>
Created by potrace 1.11, written by Peter Selinger 2001-2013
</metadata>
<g transform="translate(0.000000,640.000000) scale(0.100000,-0.100000)"
fill="#000000" stroke="none">
<path d="M2879 6396 c-2 -2 -31 -6 -64 -9 -54 -6 -102 -13 -205 -32 -19 -3
-75 -15 -125 -26 -49 -12 -98 -22 -108 -24 -9 -2 -21 -6 -25 -9 -5 -3 -19 -7
-33 -10 -135 -26 -526 -191 -704 -297 -27 -16 -57 -32 -65 -36 -37 -17 -226
-149 -330 -229 -114 -89 -368 -332 -451 -433 -24 -29 -49 -59 -54 -65 -12 -12
-103 -136 -157 -211 -105 -148 -245 -412 -327 -616 -40 -102 -109 -303 -117
-344 -1 -5 -9 -37 -17 -70 -20 -76 -54 -247 -62 -305 -3 -25 -8 -61 -11 -80
-26 -197 -25 -664 1 -801 3 -13 8 -44 11 -69 8 -62 51 -277 64 -320 6 -19 13
-45 16 -58 6 -29 52 -181 63 -207 5 -11 28 -69 51 -130 120 -308 318 -637 541
-898 92 -109 311 -320 416 -404 446 -356 923 -571 1478 -668 183 -32 286 -40
530 -40 195 0 315 6 395 20 14 2 61 9 105 15 144 21 287 56 512 125 184 56
535 224 708 339 22 14 47 31 55 36 53 35 203 146 224 165 6 6 36 30 66 54 65
53 306 294 370 371 430 515 686 1128 747 1790 10 109 10 483 0 580 -11 103
-12 107 -33 240 -2 14 -8 50 -14 80 -6 30 -14 66 -16 80 -74 380 -299 872
-554 1215 -177 238 -473 534 -676 675 -362 252 -637 386 -1023 500 -41 12 -81
23 -90 25 -9 2 -36 8 -61 14 -25 5 -58 12 -74 15 -16 3 -52 10 -80 16 -148 30
-264 38 -562 39 -171 0 -313 -1 -315 -3z"/>
</g>
</svg>
